<svg width="32" height="11" viewBox="0 0 32 11" fill="none" xmlns="http://www.w3.org/2000/svg">
<path d="M0.236 5.904V4.86L4.964 1.752V3.54L2.108 5.34V5.424L4.964 7.224V9.024L0.236 5.904ZM7.11931 9V0.624H8.94331V7.38H12.1353V9H7.11931ZM15.3066 9H13.4826V0.624H17.4546C17.8386 0.624 18.1866 0.688 18.4986 0.816C18.8106 0.944 19.0746 1.128 19.2906 1.368C19.5146 1.6 19.6866 1.88 19.8066 2.208C19.9266 2.536 19.9866 2.9 19.9866 3.3C19.9866 3.868 19.8586 4.364 19.6026 4.788C19.3546 5.212 18.9746 5.52 18.4626 5.712L20.1066 9H18.0786L16.6146 5.928H15.3066V9ZM17.2266 4.392C17.4986 4.392 17.7106 4.324 17.8626 4.188C18.0226 4.044 18.1026 3.836 18.1026 3.564V3.036C18.1026 2.764 18.0226 2.56 17.8626 2.424C17.7106 2.28 17.4986 2.208 17.2266 2.208H15.3066V4.392H17.2266ZM20.4462 10.812L24.0222 0.12H25.4862L21.9102 10.812H20.4462ZM27.1657 7.224L30.0217 5.424V5.34L27.1657 3.54V1.752L31.8937 4.848V5.892L27.1657 9.024V7.224Z" fill="#7ED957"/>
</svg>
